<svg width="1200" height="320" viewBox="0 0 1200 320" fill="none" xmlns="http://www.w3.org/2000/svg">
  <defs>
    <linearGradient id="bg" x1="0" y1="0" x2="1200" y2="320" gradientUnits="userSpaceOnUse">
      <stop offset="0" stop-color="#0D1117"/>
      <stop offset="1" stop-color="#071B2C"/>
    </linearGradient>
    <linearGradient id="bar" x1="0" y1="0" x2="900" y2="0" gradientUnits="userSpaceOnUse">
      <stop offset="0" stop-color="#00D9FF"/>
      <stop offset="1" stop-color="#1F6FEB"/>
    </linearGradient>
  </defs>
  <rect width="1200" height="320" rx="24" fill="url(#bg)"/>
  <rect x="1" y="1" width="1198" height="318" rx="23" stroke="#30363D" stroke-width="2"/>
  <text x="60" y="58" font-family="Inter, Segoe UI, Arial, sans-serif" font-size="28" font-weight="800" fill="#F0F6FC">Tech Focus</text>
  <text x="60" y="88" font-family="Inter, Segoe UI, Arial, sans-serif" font-size="16" fill="#8B949E">A clean snapshot of the technologies your profile is positioned around</text>
  <g transform="translate(60 124)">
    <text x="0" y="22" font-family="Inter, Segoe UI, Arial, sans-serif" font-size="17" font-weight="800" fill="#E6EDF3">Python Backend & APIs</text>
    <rect x="0" y="38" width="960" height="18" rx="9" fill="#21262D"/>
    <rect x="0" y="38" width="840" height="18" rx="9" fill="url(#bar)"/>
    <text x="980" y="54" font-family="Inter, Segoe UI, Arial, sans-serif" font-size="15" font-weight="800" fill="#00D9FF">Strong</text>
  </g>
  <g transform="translate(60 184)">
    <text x="0" y="22" font-family="Inter, Segoe UI, Arial, sans-serif" font-size="17" font-weight="800" fill="#E6EDF3">Full Stack SaaS Development</text>
    <rect x="0" y="38" width="960" height="18" rx="9" fill="#21262D"/>
    <rect x="0" y="38" width="760" height="18" rx="9" fill="url(#bar)"/>
    <text x="980" y="54" font-family="Inter, Segoe UI, Arial, sans-serif" font-size="15" font-weight="800" fill="#58A6FF">Growing</text>
  </g>
  <g transform="translate(60 244)">
    <text x="0" y="22" font-family="Inter, Segoe UI, Arial, sans-serif" font-size="17" font-weight="800" fill="#E6EDF3">AI/ML + Healthcare Analytics</text>
    <rect x="0" y="38" width="960" height="18" rx="9" fill="#21262D"/>
    <rect x="0" y="38" width="690" height="18" rx="9" fill="url(#bar)"/>
    <text x="980" y="54" font-family="Inter, Segoe UI, Arial, sans-serif" font-size="15" font-weight="800" fill="#00D9FF">Focused</text>
  </g>
</svg>